<svg> 
	<symbol id="play-btn" width="26" height="26" viewBox="0 0 26 26" xmlns="http://www.w3.org/2000/svg">
		<path d="M24.5 12.134C25.1667 12.5189 25.1667 13.4811 24.5 13.866L8 23.3923C7.33333 23.7772 6.5 23.2961 6.5 22.5263L6.5 3.47372C6.5 2.70392 7.33333 2.2228 8 2.6077L24.5 12.134Z"/>
	</symbol>

	<symbol id="pause-btn" width="25" height="26" viewBox="0 0 18 22" xmlns="http://www.w3.org/2000/svg">
		<rect width="6" height="26" rx="1"/>
		<rect x="12" width="6" height="26" rx="1"/>
	</symbol>
	
	<symbol id="mute-btn" width="14" height="14" viewBox="0 0 14 14" xmlns="http://www.w3.org/2000/svg">
		<path fill-rule="evenodd" clip-rule="evenodd" d="M8.00033 11.5827C8.58366 11.9994 9.33366 11.666 9.33366 10.916V7.16602L6.25033 10.2493L8.00033 11.5827Z"/>
		<path fill-rule="evenodd" clip-rule="evenodd" d="M13.2503 0.416016C12.917 0.0826823 12.417 0.0826823 12.0837 0.416016L9.33366 3.16602V1.08268C9.33366 0.416015 8.50033 -0.00065104 8.00033 0.416016L5.66699 2.33268C5.33366 2.49935 5.00033 2.66602 4.58366 2.66602H2.66699C1.75033 2.66602 1.00033 3.41602 1.00033 4.33268V7.66602C1.00033 8.58268 1.75033 9.33268 2.66699 9.33268H3.16699L0.416992 12.0827C0.0836589 12.416 0.0836589 12.916 0.416992 13.2494C0.750326 13.5827 1.25033 13.5827 1.58366 13.2494L13.2503 1.58268C13.5837 1.24935 13.5837 0.749349 13.2503 0.416016Z"/>
	</symbol>
	
	<symbol id="unmute-btn" width="14" height="11" viewBox="0 0 21 18" xmlns="http://www.w3.org/2000/svg">
		<path d="M0 7C0 5.9 0.9 5 2 5H4.3C4.8 5 5.2 4.8 5.5 4.6L8.3 2.3C9 1.8 10 2.2 10 3.1V14.9C10 15.7 9 16.2 8.4 15.7L5.6 13.4C5.2 13.2 4.8 13 4.3 13H2C0.9 13 0 12.1 0 11V7Z"/>
		<path d="M13 14C12.7 14 12.5 13.9 12.3 13.7C11.9 13.3 11.9 12.7 12.3 12.3C12.3 12.3 13.5 11 13.5 9C13.5 7 12.3 5.8 12.3 5.7C11.9 5.3 11.9 4.7 12.3 4.3C12.7 3.9 13.3 3.9 13.7 4.3C13.8 4.4 15.5 6.1 15.5 9C15.5 11.9 13.8 13.6 13.7 13.7C13.5 13.9 13.3 14 13 14Z"/>
		<path d="M16 18C15.7 18 15.5 17.9 15.3 17.7C14.9 17.3 14.9 16.7 15.3 16.3C15.3 16.3 18.2 13.5 18.2 9C18.2 4.5 15.3 1.8 15.3 1.7C14.9 1.3 14.9 0.7 15.3 0.3C15.7 -0.1 16.3 -0.1 16.7 0.3C16.8 0.4 20.2 3.7 20.2 9C20.2 14.4 16.8 17.6 16.7 17.7C16.5 17.9 16.2 18 16 18Z"/>
	</symbol>

	<symbol id="arrow-prev" width="18" height="12" viewBox="0 0 18 12" xmlns="http://www.w3.org/2000/svg">
		<path fill-rule="evenodd" clip-rule="evenodd" d="M6.20711 11.2071C5.81658 11.5976 5.18342 11.5976 4.79289 11.2071L0.292892 6.70711C-0.0976315 6.31658 -0.0976315 5.68342 0.292892 5.29289L4.79289 0.792893C5.18342 0.402369 5.81658 0.402369 6.20711 0.792893C6.59763 1.18342 6.59763 1.81658 6.20711 2.20711L3.41421 5L17 5C17.5523 5 18 5.44772 18 6C18 6.55228 17.5523 7 17 7L3.41421 7L6.20711 9.79289C6.59763 10.1834 6.59763 10.8166 6.20711 11.2071Z"/>
	</symbol>
	
	<symbol id="arrow-next" width="18" height="12" viewBox="0 0 18 12" xmlns="http://www.w3.org/2000/svg">
		<path fill-rule="evenodd" clip-rule="evenodd" d="M11.7929 0.792893C12.1834 0.402369 12.8166 0.402369 13.2071 0.792893L17.7071 5.29289C18.0976 5.68342 18.0976 6.31658 17.7071 6.70711L13.2071 11.2071C12.8166 11.5976 12.1834 11.5976 11.7929 11.2071C11.4024 10.8166 11.4024 10.1834 11.7929 9.79289L14.5858 7H1C0.447715 7 0 6.55228 0 6C0 5.44772 0.447715 5 1 5H14.5858L11.7929 2.20711C11.4024 1.81658 11.4024 1.18342 11.7929 0.792893Z"/>
	</symbol>

</svg>