<svg>
	<symbol id="play-btn" width="26" height="26" viewBox="0 0 26 26"
		xmlns="http://www.w3.org/2000/svg">
		<path
			d="M24.5 12.134C25.1667 12.5189 25.1667 13.4811 24.5 13.866L8 23.3923C7.33333 23.7772 6.5 23.2961 6.5 22.5263L6.5 3.47372C6.5 2.70392 7.33333 2.2228 8 2.6077L24.5 12.134Z" />
	</symbol>

	<symbol id="pause-btn" width="25" height="26" viewBox="0 0 18 22"
		xmlns="http://www.w3.org/2000/svg">
		<rect width="6" height="26" rx="1" />
		<rect x="12" width="6" height="26" rx="1" />
	</symbol>

	<symbol id="mute-btn" width="14" height="14" viewBox="0 0 14 14"
		xmlns="http://www.w3.org/2000/svg">
		<path fill-rule="evenodd" clip-rule="evenodd"
			d="M8.00033 11.5827C8.58366 11.9994 9.33366 11.666 9.33366 10.916V7.16602L6.25033 10.2493L8.00033 11.5827Z" />
		<path fill-rule="evenodd" clip-rule="evenodd"
			d="M13.2503 0.416016C12.917 0.0826823 12.417 0.0826823 12.0837 0.416016L9.33366 3.16602V1.08268C9.33366 0.416015 8.50033 -0.00065104 8.00033 0.416016L5.66699 2.33268C5.33366 2.49935 5.00033 2.66602 4.58366 2.66602H2.66699C1.75033 2.66602 1.00033 3.41602 1.00033 4.33268V7.66602C1.00033 8.58268 1.75033 9.33268 2.66699 9.33268H3.16699L0.416992 12.0827C0.0836589 12.416 0.0836589 12.916 0.416992 13.2494C0.750326 13.5827 1.25033 13.5827 1.58366 13.2494L13.2503 1.58268C13.5837 1.24935 13.5837 0.749349 13.2503 0.416016Z" />
	</symbol>

	<symbol id="unmute-btn" width="14" height="11" viewBox="0 0 21 18"
		xmlns="http://www.w3.org/2000/svg">
		<path
			d="M0 7C0 5.9 0.9 5 2 5H4.3C4.8 5 5.2 4.8 5.5 4.6L8.3 2.3C9 1.8 10 2.2 10 3.1V14.9C10 15.7 9 16.2 8.4 15.7L5.6 13.4C5.2 13.2 4.8 13 4.3 13H2C0.9 13 0 12.1 0 11V7Z" />
		<path
			d="M13 14C12.7 14 12.5 13.9 12.3 13.7C11.9 13.3 11.9 12.7 12.3 12.3C12.3 12.3 13.5 11 13.5 9C13.5 7 12.3 5.8 12.3 5.7C11.9 5.3 11.9 4.7 12.3 4.3C12.7 3.9 13.3 3.9 13.7 4.3C13.8 4.4 15.5 6.1 15.5 9C15.5 11.9 13.8 13.6 13.7 13.7C13.5 13.9 13.3 14 13 14Z" />
		<path
			d="M16 18C15.7 18 15.5 17.9 15.3 17.7C14.9 17.3 14.9 16.7 15.3 16.3C15.3 16.3 18.2 13.5 18.2 9C18.2 4.5 15.3 1.8 15.3 1.7C14.9 1.3 14.9 0.7 15.3 0.3C15.7 -0.1 16.3 -0.1 16.7 0.3C16.8 0.4 20.2 3.7 20.2 9C20.2 14.4 16.8 17.6 16.7 17.7C16.5 17.9 16.2 18 16 18Z" />
	</symbol>

	<symbol id="arrow-prev" width="18" height="12" viewBox="0 0 18 12"
		xmlns="http://www.w3.org/2000/svg">
		<path fill-rule="evenodd" clip-rule="evenodd"
			d="M6.20711 11.2071C5.81658 11.5976 5.18342 11.5976 4.79289 11.2071L0.292892 6.70711C-0.0976315 6.31658 -0.0976315 5.68342 0.292892 5.29289L4.79289 0.792893C5.18342 0.402369 5.81658 0.402369 6.20711 0.792893C6.59763 1.18342 6.59763 1.81658 6.20711 2.20711L3.41421 5L17 5C17.5523 5 18 5.44772 18 6C18 6.55228 17.5523 7 17 7L3.41421 7L6.20711 9.79289C6.59763 10.1834 6.59763 10.8166 6.20711 11.2071Z" />
	</symbol>

	<symbol id="arrow-next" width="18" height="12" viewBox="0 0 18 12"
		xmlns="http://www.w3.org/2000/svg">
		<path fill-rule="evenodd" clip-rule="evenodd"
			d="M11.7929 0.792893C12.1834 0.402369 12.8166 0.402369 13.2071 0.792893L17.7071 5.29289C18.0976 5.68342 18.0976 6.31658 17.7071 6.70711L13.2071 11.2071C12.8166 11.5976 12.1834 11.5976 11.7929 11.2071C11.4024 10.8166 11.4024 10.1834 11.7929 9.79289L14.5858 7H1C0.447715 7 0 6.55228 0 6C0 5.44772 0.447715 5 1 5H14.5858L11.7929 2.20711C11.4024 1.81658 11.4024 1.18342 11.7929 0.792893Z" />
	</symbol>

	<symbol id="construct" width="53" height="50" viewBox="0 0 53 50"
		xmlns="http://www.w3.org/2000/svg">
		<path
			d="M50.9766 26.5234C51.8179 26.5234 52.5 25.8413 52.5 25V13.625C52.5 12.7837 51.8179 12.1016 50.9766 12.1016C49.9146 12.1016 29.168 12.1016 28.0234 12.1016V2.25C28.0234 1.40866 27.3413 0.726562 26.5 0.726562H10.25C9.40866 0.726562 8.72656 1.40866 8.72656 2.25V12.1016H2.02344C1.18209 12.1016 0.5 12.7837 0.5 13.625V25C0.5 25.8413 1.18209 26.5234 2.02344 26.5234H8.72656V34.8516H2.02344C1.18209 34.8516 0.5 35.5337 0.5 36.375V47.75C0.5 48.5913 1.18209 49.2734 2.02344 49.2734H50.9766C51.8179 49.2734 52.5 48.5913 52.5 47.75V36.375C52.5 35.5337 51.8179 34.8516 50.9766 34.8516H44.2734V26.5234H50.9766ZM49.4531 23.4766C47.8232 23.4766 37.7597 23.4766 36.1484 23.4766V15.1484H49.4531V23.4766ZM33.1016 23.4766C31.5059 23.4766 21.5046 23.4766 19.8984 23.4766V15.1484H33.1016V23.4766ZM11.7734 3.77344H24.9766V12.1016C23.3809 12.1016 13.3796 12.1016 11.7734 12.1016V3.77344ZM3.54688 23.4766V15.1484H16.8516V23.4766C15.2396 23.4766 5.17645 23.4766 3.54688 23.4766ZM11.7734 26.5234H24.9766V34.8516C23.3809 34.8516 13.3796 34.8516 11.7734 34.8516V26.5234ZM3.54688 37.8984H16.8516V46.2266H3.54688V37.8984ZM19.8984 37.8984H33.1016V46.2266H19.8984V37.8984ZM49.4531 37.8984V46.2266H36.1484V37.8984H49.4531ZM41.2266 34.8516C39.6309 34.8516 29.6296 34.8516 28.0234 34.8516V26.5234H41.2266V34.8516Z" />
	</symbol>
	<symbol id="plan" width="53" height="52" viewBox="0 0 53 52" xmlns="http://www.w3.org/2000/svg">
		<g clip-path="url(#clip0_52545_420)">
			<path
				d="M46.4062 3.14844C44.1552 3.14844 42.1854 4.37521 41.1303 6.19531H2.02344C1.18209 6.19531 0.5 6.87741 0.5 7.71875V47.3281C0.5 48.1695 1.18209 48.8516 2.02344 48.8516H46.4062C49.7663 48.8516 52.5 46.1179 52.5 42.7578V9.24219C52.5 5.88209 49.7663 3.14844 46.4062 3.14844ZM46.4062 45.8047C45.8103 45.8047 4.1011 45.8047 3.54688 45.8047V9.24219H40.3125V42.7578C40.3125 43.5992 40.9946 44.2812 41.8359 44.2812C42.6773 44.2812 43.3594 43.5992 43.3594 42.7578C43.3594 41.0778 44.7262 39.7109 46.4062 39.7109C48.0863 39.7109 49.4531 41.0778 49.4531 42.7578C49.4531 44.4379 48.0863 45.8047 46.4062 45.8047ZM49.4531 37.4818C48.5563 36.9619 47.5153 36.6641 46.4062 36.6641C45.2972 36.6641 44.2562 36.9619 43.3594 37.4818V9.24219C43.3594 7.56214 44.7262 6.19531 46.4062 6.19531C48.0863 6.19531 49.4531 7.56214 49.4531 9.24219V37.4818Z" />
			<path
				d="M35.6406 12.2891H8.21875C7.37741 12.2891 6.69531 12.9712 6.69531 13.8125V41.2344C6.69531 42.0757 7.37741 42.7578 8.21875 42.7578H23.4531C23.8572 42.7578 24.2446 42.5972 24.5303 42.3115C24.8161 42.0259 24.9766 41.6384 24.9766 41.2344V38.1875C24.9766 36.2013 26.2501 34.507 28.0234 33.8782V41.2344C28.0234 42.0757 28.7055 42.7578 29.5469 42.7578H35.6406C36.482 42.7578 37.1641 42.0757 37.1641 41.2344V13.8125C37.1641 12.9712 36.482 12.2891 35.6406 12.2891ZM34.1172 39.7109H31.0703V32.0938C31.0703 31.2524 30.3882 30.5703 29.5469 30.5703C25.3468 30.5703 21.9297 33.9874 21.9297 38.1875V39.7109H9.74219V30.5703H15.8359V35.1406C15.8359 35.982 16.518 36.6641 17.3594 36.6641C18.2007 36.6641 18.8828 35.982 18.8828 35.1406V29.0469C18.8828 28.2055 18.2007 27.5234 17.3594 27.5234H9.74219V15.3359H18.8828V21.4297H14.3125C13.4712 21.4297 12.7891 22.1118 12.7891 22.9531C12.7891 23.7945 13.4712 24.4766 14.3125 24.4766H20.4062H26.5C27.3413 24.4766 28.0234 23.7945 28.0234 22.9531C28.0234 22.1118 27.3413 21.4297 26.5 21.4297H21.9297V15.3359H34.1172V39.7109Z" />
		</g>
		<defs>
			<clipPath id="clip0_52545_420">
				<rect width="52" height="52" transform="translate(0.5)" />
			</clipPath>
		</defs>
	</symbol>
	<symbol id="design" width="53" height="52" viewBox="0 0 53 52" xmlns="http://www.w3.org/2000/svg">
		<g clip-path="url(#clip0_52545_400)">
			<path
				d="M11.2656 36.6641C8.74555 36.6641 6.69531 38.7143 6.69531 41.2344C6.69531 43.7544 8.74555 45.8047 11.2656 45.8047C13.7857 45.8047 15.8359 43.7544 15.8359 41.2344C15.8359 38.7143 13.7857 36.6641 11.2656 36.6641ZM11.2656 42.7578C10.4256 42.7578 9.74219 42.0744 9.74219 41.2344C9.74219 40.3944 10.4256 39.7109 11.2656 39.7109C12.1056 39.7109 12.7891 40.3944 12.7891 41.2344C12.7891 42.0744 12.1056 42.7578 11.2656 42.7578Z" />
			<path
				d="M49.7504 30.9497C50.7897 29.5433 50.9811 27.582 50.0361 25.9454L43.9455 15.2945C42.8919 13.4696 40.6701 12.6369 38.6882 13.1667C39.1102 11.2698 38.2823 9.23477 36.5124 8.21295L25.9584 2.11961C24.4511 1.24922 22.6489 1.33839 21.2628 2.19568C20.4596 0.880141 19.0104 0 17.3594 0H5.07031C2.55024 0 0.5 2.05024 0.5 4.57031C0.5 5.62707 0.5 46.2132 0.5 47.4297C0.5 49.9498 2.55024 52 5.07031 52C6.25382 52 42.1374 52 47.9297 52C50.4498 52 52.5 49.9498 52.5 47.4297V35.1406C52.5 33.2675 51.3669 31.6547 49.7504 30.9497ZM18.8828 47.4297C18.8828 48.2697 18.1994 48.9531 17.3594 48.9531H5.07031C4.23029 48.9531 3.54688 48.2697 3.54688 47.4297C3.54688 46.7337 3.54688 34.2857 3.54688 33.6172H18.8828V47.4297ZM18.8828 30.5703H3.54688V18.2812H18.8828V30.5703ZM18.8828 15.2344H3.54688V4.57031C3.54688 3.73029 4.23029 3.04688 5.07031 3.04688H17.3594C18.1994 3.04688 18.8828 3.73029 18.8828 4.57031V15.2344ZM21.9297 6.04988L22.3533 5.31609C22.7736 4.58839 23.7073 4.33814 24.4349 4.75831L34.989 10.8516C35.7167 11.2718 35.9668 12.2056 35.5456 12.9353L33.7853 15.9951C33.7412 16.0602 33.7016 16.1278 33.6683 16.1984L21.9297 36.6026V6.04988ZM21.9297 42.7126L36.171 17.9581L39.1156 16.258C39.8621 15.8271 40.8859 16.0888 41.3037 16.8125L47.3944 27.4633C47.8156 28.1929 47.57 29.1283 46.8328 29.5539C45.7449 30.1837 23.0011 43.3507 21.9297 43.971V42.7126ZM49.4531 47.4297C49.4531 48.2697 48.7697 48.9531 47.9297 48.9531H21.6677C21.8301 48.4951 21.9212 48.0039 21.9282 47.4926L45.8954 33.6172H47.9297C48.7697 33.6172 49.4531 34.3006 49.4531 35.1406V47.4297Z" />
		</g>
		<defs>
			<clipPath id="clip0_52545_400">
				<rect width="52" height="52" transform="translate(0.5)" />
			</clipPath>
		</defs>
	</symbol>
	<symbol id="repairs" width="53" height="52" viewBox="0 0 53 52"
		xmlns="http://www.w3.org/2000/svg">
		<path
			d="M43.3594 4.57031C43.3594 2.05029 41.3091 0 38.7891 0H8.32031C5.80029 0 3.75 2.05029 3.75 4.57031V13.7109C3.75 16.231 5.80029 18.2813 8.32031 18.2813H38.7891C41.3091 18.2813 43.3594 16.231 43.3594 13.7109V12.1875H44.8828C45.7227 12.1875 46.4063 12.8711 46.4063 13.7109V19.8047C46.4063 20.6446 45.7227 21.3281 44.8828 21.3281H26.6016C24.0815 21.3281 22.0313 23.3784 22.0313 25.8984V30.4688H20.5078C19.6664 30.4688 18.9844 31.1507 18.9844 31.9922V38.003L17.4609 44.1952C16.4703 48.1573 19.464 52 23.5547 52C27.6473 52 30.6379 48.1533 29.65 44.2007L28.125 38.003V31.9922C28.125 31.1507 27.443 30.4688 26.6016 30.4688H25.0781V25.8984C25.0781 25.0586 25.7617 24.375 26.6016 24.375H44.8828C47.4028 24.375 49.4531 22.3247 49.4531 19.8047V13.7109C49.4531 11.1909 47.4028 9.14063 44.8828 9.14063H43.3594V4.57031ZM25.0781 33.5156V36.6641H22.0313V33.5156H25.0781ZM23.5547 48.9531C21.456 48.9531 19.9044 46.9834 20.4182 44.9287L21.702 39.7109H25.4074L26.6924 44.9343C27.2026 46.9746 25.6609 48.9531 23.5547 48.9531ZM8.32031 3.04688H38.7891C39.6289 3.04688 40.3125 3.73044 40.3125 4.57031V6.09375H35.7422C34.2616 6.09375 32.3684 6.64838 30.1761 7.29028C27.2149 8.15753 23.859 9.14063 20.5078 9.14063C17.2412 9.14063 14.9381 8.18649 12.9061 7.34503C11.3525 6.70154 9.88541 6.09375 8.32031 6.09375H6.79688V4.57031C6.79688 3.73044 7.48044 3.04688 8.32031 3.04688ZM40.3125 13.7109C40.3125 14.5508 39.6289 15.2344 38.7891 15.2344H8.32031C7.48044 15.2344 6.79688 14.5508 6.79688 13.7109V9.14063H8.32031C9.27921 9.14063 10.3654 9.59052 11.7401 10.1598C13.9209 11.0632 16.6349 12.1875 20.5078 12.1875C24.2962 12.1875 28.031 11.0933 31.0326 10.2146C32.9179 9.66232 34.6988 9.14063 35.7422 9.14063H40.3125V13.7109Z" />
	</symbol>
	<symbol id="home" width="48" height="48" viewBox="0 0 48 48" xmlns="http://www.w3.org/2000/svg">
		<g clip-path="url(#clip0_52647_1338)">
			<path
				d="M28.9219 21.0938C26.9645 21.0938 25.2653 21.9855 24 23.6748C22.7344 21.9855 21.0352 21.0938 19.0781 21.0938C15.423 21.0938 12.75 24.0978 12.75 27.7841C12.75 32.5499 17.369 35.5437 23.0848 40.4425C23.3481 40.6681 23.6741 40.7813 24 40.7809C24.3259 40.7809 24.6519 40.6681 24.9152 40.4425C30.6379 35.5375 35.25 32.5481 35.25 27.7841C35.25 24.1007 32.5796 21.0938 28.9219 21.0938ZM24 37.5286C18.85 33.178 15.5625 30.832 15.5625 27.7841C15.5625 25.5732 17.0739 23.9063 19.0781 23.9063C21.6844 23.9063 22.6069 26.9652 22.6472 27.1036C22.8193 27.7075 23.3712 28.125 24 28.125C24.6306 28.125 25.184 27.705 25.3539 27.0978C25.363 27.0659 26.2782 23.9063 28.9219 23.9063C30.9258 23.9063 32.4375 25.5732 32.4375 27.7841C32.4375 30.8346 29.1456 33.1816 24 37.5286Z" />
			<path
				d="M46.5934 45.188H42.3746V23.3447C42.3827 23.3505 42.3907 23.356 42.3988 23.3619C43.0203 23.8075 43.8842 23.6746 44.343 23.063L47.7188 18.5641C47.9451 18.262 48.0406 17.8819 47.9843 17.5087C47.9275 17.1355 47.7231 16.8008 47.417 16.58C47.1921 16.4178 24.9437 0.354281 24.8298 0.271883C24.3369 -0.0884687 23.6678 -0.0892012 23.1742 0.268953C23.1064 0.318026 18.8573 3.38578 14.0625 6.84794V4.21964C14.0625 3.44291 13.433 2.81339 12.6562 2.81339H7.03125C6.25452 2.81339 5.625 3.44291 5.625 4.21964V12.9399C2.74146 15.0218 0.651123 16.5309 0.583008 16.58C0.277222 16.8008 0.072876 17.1355 0.0161133 17.5087C-0.0406494 17.8819 0.0549317 18.2624 0.281616 18.5641L3.65698 23.063C4.11584 23.6746 4.97974 23.8075 5.6012 23.3619C5.60925 23.356 5.61694 23.3505 5.625 23.3447V45.1884H1.40625C0.629517 45.1884 0 45.8179 0 46.5947C0 47.371 0.629517 48.0009 1.40625 48.0009H46.5934C47.3701 48.0009 47.9996 47.371 47.9996 46.5947C47.9996 45.8179 47.3701 45.188 46.5934 45.188ZM8.4375 5.62589H11.25V8.87858C10.2975 9.56632 9.35083 10.2497 8.4375 10.9089V5.62589ZM5.08081 20.2743L3.39075 18.0218C17.5712 7.78361 22.3722 4.31705 24 3.14151C26.2672 4.77884 33.1714 9.76371 44.6093 18.0218L42.9196 20.2743C42.7793 20.174 24.98 7.4108 24.8225 7.29764C24.3311 6.94315 23.6678 6.94388 23.1771 7.29801C22.8582 7.52726 5.48254 19.9861 5.08081 20.2743ZM8.4375 21.3279C18.7676 13.9209 22.5864 11.1828 24 10.1687C25.9102 11.5387 31.1199 15.2745 39.5625 21.3279V45.1884H8.4375V21.3279Z" />
		</g>
		<defs>
			<clipPath id="clip0_52647_1338">
				<rect width="48" height="48" />
			</clipPath>
		</defs>
	</symbol>

	<symbol id="whatsup" width="24" height="24" viewBox="0 0 24 24"
		xmlns="http://www.w3.org/2000/svg">
		<path
			d="M22 11.7424C22 17.1231 17.6047 21.4849 12.1818 21.4849C10.4602 21.4849 8.84289 21.0449 7.43578 20.2727L2 22L3.77222 16.7729C2.87822 15.3049 2.36333 13.5831 2.36333 11.7424C2.36333 6.36178 6.75911 2 12.1818 2C17.6051 2 22 6.36178 22 11.7424ZM12.1818 3.55156C7.62978 3.55156 3.92711 7.226 3.92711 11.7424C3.92711 13.5347 4.51133 15.1944 5.49956 16.5447L4.46822 19.5867L7.64044 18.5784C8.94378 19.4342 10.5051 19.9333 12.182 19.9333C16.7333 19.9333 20.4367 16.2593 20.4367 11.7429C20.4367 7.22644 16.7336 3.55156 12.1818 3.55156ZM17.1398 13.9862C17.0791 13.8869 16.9189 13.8269 16.6784 13.7076C16.4376 13.5882 15.254 13.0102 15.034 12.9309C14.8133 12.8513 14.6524 12.8113 14.4922 13.0502C14.332 13.2893 13.8707 13.8269 13.73 13.9862C13.5896 14.146 13.4493 14.166 13.2084 14.0464C12.968 13.9271 12.1927 13.6747 11.2733 12.8613C10.558 12.2284 10.0749 11.4471 9.93444 11.2078C9.79422 10.9689 9.91978 10.8398 10.04 10.7209C10.1484 10.6138 10.2809 10.442 10.4011 10.3027C10.5218 10.1631 10.5618 10.0638 10.6416 9.90422C10.7222 9.74489 10.682 9.60556 10.6216 9.48578C10.5616 9.36644 10.0798 8.19133 9.87933 7.71311C9.67889 7.23533 9.47867 7.31489 9.338 7.31489C9.19778 7.31489 9.03711 7.29489 8.87667 7.29489C8.71622 7.29489 8.45533 7.35467 8.23467 7.59356C8.01422 7.83267 7.39267 8.41044 7.39267 9.58533C7.39267 10.7604 8.25467 11.8958 8.37533 12.0549C8.49556 12.214 10.0398 14.7038 12.4864 15.66C14.9333 16.6158 14.9333 16.2969 15.3747 16.2569C15.8156 16.2171 16.7982 15.6793 16.9996 15.122C17.1996 14.5638 17.1996 14.0858 17.1398 13.9862Z" />
	</symbol>

	<symbol id="messanger" width="24" height="24" viewBox="0 0 24 24"
		xmlns="http://www.w3.org/2000/svg">
		<path
			d="M12 2C6.4775 2 2 6.145 2 11.2587C2 14.1725 3.45375 16.7712 5.72625 18.4688V22L9.13125 20.1313C10.04 20.3825 11.0025 20.5187 12 20.5187C17.5225 20.5187 22 16.3737 22 11.26C22 6.14625 17.5225 2 12 2ZM12.9937 14.4688L10.4475 11.7525L5.47875 14.4688L10.945 8.66625L13.5538 11.3825L18.46 8.66625L12.9937 14.4688Z" />
	</symbol>

	<symbol id="fb" width="24" height="24" viewBox="0 0 24 24" xmlns="http://www.w3.org/2000/svg">
		<path
			d="M17.5628 1.00458L14.7856 1C11.6654 1 9.64903 3.12509 9.64903 6.41423V8.91055H6.85662C6.61532 8.91055 6.41992 9.1115 6.41992 9.35937V12.9763C6.41992 13.2241 6.61554 13.4249 6.85662 13.4249H9.64903V22.5514C9.64903 22.7993 9.84443 23 10.0857 23H13.729C13.9703 23 14.1657 22.799 14.1657 22.5514V13.4249H17.4307C17.672 13.4249 17.8674 13.2241 17.8674 12.9763L17.8688 9.35937C17.8688 9.24036 17.8226 9.12638 17.7409 9.04215C17.6591 8.95793 17.5477 8.91055 17.4318 8.91055H14.1657V6.79439C14.1657 5.77728 14.4017 5.26094 15.6915 5.26094L17.5624 5.26025C17.8035 5.26025 17.9989 5.0593 17.9989 4.81166V1.45317C17.9989 1.20576 17.8037 1.00504 17.5628 1.00458Z" />
	</symbol>

	<symbol id="tw" width="24" height="24" viewBox="0 0 24 24" xmlns="http://www.w3.org/2000/svg">
		<path
			d="M22.5 5.77233C21.7271 6.10027 20.8978 6.32267 20.0264 6.42196C20.9161 5.91181 21.5972 5.10263 21.92 4.1414C21.0854 4.61383 20.1642 4.95688 19.1826 5.14285C18.3966 4.33994 17.2785 3.83984 16.0384 3.83984C13.6593 3.83984 11.7303 5.68691 11.7303 7.9637C11.7303 8.2866 11.7683 8.60199 11.8418 8.90357C8.26201 8.73141 5.08768 7.08917 2.96314 4.59372C2.59176 5.20189 2.38049 5.91053 2.38049 6.66697C2.38049 8.09814 3.14161 9.36093 4.2964 10.0997C3.5904 10.0771 2.92639 9.89116 2.34508 9.58205V9.63357C2.34508 11.6314 3.83056 13.2988 5.80024 13.6783C5.43936 13.7713 5.05882 13.8228 4.66514 13.8228C4.38696 13.8228 4.11794 13.7964 3.85417 13.7461C4.40267 15.3859 5.99315 16.5783 7.87756 16.611C6.40388 17.7167 4.54573 18.3739 2.52749 18.3739C2.17976 18.3739 1.83724 18.3537 1.5 18.3173C3.40671 19.4896 5.67036 20.1732 8.10327 20.1732C16.028 20.1732 20.3597 13.8881 20.3597 8.43741L20.3453 7.90341C21.1917 7.32537 21.9239 6.59912 22.5 5.77233Z" />
	</symbol>

	<symbol id="youtube" width="24" height="24" viewBox="0 0 24 24"
		xmlns="http://www.w3.org/2000/svg">
		<path fill-rule="evenodd" clip-rule="evenodd"
			d="M21.3903 4.11358C22.4182 4.39044 23.2288 5.20086 23.5055 6.22899C24.0197 8.10691 23.9999 12.0213 23.9999 12.0213C23.9999 12.0213 23.9999 15.9158 23.5057 17.7939C23.2288 18.8218 22.4184 19.6324 21.3903 19.9091C19.5122 20.4035 12 20.4035 12 20.4035C12 20.4035 4.50731 20.4035 2.60961 19.8895C1.58148 19.6127 0.771054 18.802 0.4942 17.7741C0 15.9158 0 12.0015 0 12.0015C0 12.0015 0 8.10691 0.4942 6.22899C0.770871 5.20104 1.60125 4.37066 2.60943 4.09399C4.48753 3.59961 11.9998 3.59961 11.9998 3.59961C11.9998 3.59961 19.5122 3.59961 21.3903 4.11358ZM15.8549 12.0016L9.60788 15.5996V8.40355L15.8549 12.0016Z" />
	</symbol>

	<symbol id="arrow-top" width="16" height="9" viewBox="0 0 16 9"
		xmlns="http://www.w3.org/2000/svg">
		<path fill-rule="evenodd" clip-rule="evenodd"
			d="M0.292893 8.70711C-0.0976311 8.31658 -0.0976311 7.68342 0.292893 7.29289L7.29289 0.292893C7.68342 -0.0976315 8.31658 -0.0976315 8.70711 0.292893L15.7071 7.29289C16.0976 7.68342 16.0976 8.31658 15.7071 8.70711C15.3166 9.09763 14.6834 9.09763 14.2929 8.70711L8 2.41421L1.70711 8.70711C1.31658 9.09763 0.683417 9.09763 0.292893 8.70711Z" />
	</symbol>

	<symbol id="check-mark" width="24" height="24" viewBox="0 0 24 24"
		xmlns="http://www.w3.org/2000/svg">
		<path fill-rule="evenodd" clip-rule="evenodd"
			d="M21.7071 5.29289C22.0976 5.68342 22.0976 6.31658 21.7071 6.70711L9.70711 18.7071C9.31658 19.0976 8.68342 19.0976 8.29289 18.7071L2.29289 12.7071C1.90237 12.3166 1.90237 11.6834 2.29289 11.2929C2.68342 10.9024 3.31658 10.9024 3.70711 11.2929L9 16.5858L20.2929 5.29289C20.6834 4.90237 21.3166 4.90237 21.7071 5.29289Z" />
	</symbol>

	<symbol id="reload" width="24" height="24" viewBox="0 0 24 24" xmlns="http://www.w3.org/2000/svg">
		<path fill-rule="evenodd" clip-rule="evenodd"
			d="M2.09961 2C2.65189 2 3.09961 2.44772 3.09961 3V7.43632C4.75764 4.20928 8.11959 2 11.9996 2C16.3552 2 20.058 4.78413 21.4303 8.66675C21.6144 9.18747 21.3414 9.75879 20.8207 9.94284C20.3 10.1269 19.7287 9.85396 19.5446 9.33325C18.4459 6.22472 15.4813 4 11.9996 4C9.03957 4 6.45326 5.60799 5.06955 8H8.09957C8.65186 8 9.09957 8.44772 9.09957 9C9.09957 9.55228 8.65186 10 8.09957 10H2.09961C1.54732 10 1.09961 9.55228 1.09961 9V3C1.09961 2.44772 1.54732 2 2.09961 2Z" />
		<path fill-rule="evenodd" clip-rule="evenodd"
			d="M3.17664 14.0572C3.69736 13.8731 4.26868 14.146 4.45273 14.6668C5.55144 17.7753 8.51608 20 11.9978 20C14.9578 20 17.5441 18.392 18.9278 16H15.8978C15.3455 16 14.8978 15.5523 14.8978 15C14.8978 14.4477 15.3455 14 15.8978 14H21.8977C22.45 14 22.8977 14.4477 22.8977 15V21C22.8977 21.5523 22.45 22 21.8977 22C21.3455 22 20.8977 21.5523 20.8977 21V16.5637C19.2397 19.7907 15.8778 22 11.9978 22C7.64215 22 3.93936 19.2159 2.56705 15.3332C2.383 14.8125 2.65593 14.2412 3.17664 14.0572Z" />
	</symbol>

	<symbol id="like" width="48" height="48" viewBox="0 0 48 48" xmlns="http://www.w3.org/2000/svg">
		<path
			d="M44.0166 29.7188C44.6859 28.9716 45.0938 27.9853 45.0938 26.9062C45.0938 24.5803 43.2009 22.6875 40.875 22.6875H32.6869C33.4978 20.2266 33.8438 16.9613 33.8438 15.5616V14.1562C33.8438 11.055 31.32 8.53125 28.2188 8.53125H26.8125C26.1675 8.53125 25.605 8.97 25.4484 9.59625L24.6825 12.6609C23.6091 16.9528 20.2013 21.6881 16.6744 22.5487C16.0566 20.985 14.5312 19.875 12.75 19.875H4.3125C3.53625 19.875 2.90625 20.505 2.90625 21.2812V46.5938C2.90625 47.37 3.53625 48 4.3125 48H12.75C14.4272 48 15.8784 47.0166 16.5581 45.5953L21.39 47.2059C22.9697 47.7328 24.6159 48 26.2819 48H38.0625C40.3884 48 42.2812 46.1072 42.2812 43.7812C42.2812 43.2328 42.1763 42.7078 41.985 42.2269C43.7738 41.7384 45.0938 40.0987 45.0938 38.1562C45.0938 37.0772 44.6859 36.0909 44.0166 35.3438C44.6859 34.5966 45.0938 33.6103 45.0938 32.5312C45.0938 31.4522 44.6859 30.4659 44.0166 29.7188ZM14.1562 43.7812C14.1562 44.5566 13.5253 45.1875 12.75 45.1875H5.71875V22.6875H12.75C13.5253 22.6875 14.1562 23.3184 14.1562 24.0938V43.7812ZM38.0625 31.125H40.875C41.6503 31.125 42.2812 31.7559 42.2812 32.5312C42.2812 33.3066 41.6503 33.9375 40.875 33.9375H38.0625C37.2863 33.9375 36.6562 34.5675 36.6562 35.3438C36.6562 36.12 37.2863 36.75 38.0625 36.75H40.875C41.6503 36.75 42.2812 37.3809 42.2812 38.1562C42.2812 38.9316 41.6503 39.5625 40.875 39.5625H38.0625C37.2863 39.5625 36.6562 40.1925 36.6562 40.9688C36.6562 41.745 37.2863 42.375 38.0625 42.375C38.8378 42.375 39.4688 43.0059 39.4688 43.7812C39.4688 44.5566 38.8378 45.1875 38.0625 45.1875H26.2819C24.9187 45.1875 23.5716 44.9691 22.2787 44.5378L16.9688 42.7678V25.3669C19.1747 24.9478 21.3337 23.5509 23.2828 21.2644C25.1859 19.0313 26.7291 16.0706 27.4106 13.3434L27.9103 11.3438H28.2188C29.7694 11.3438 31.0312 12.6056 31.0312 14.1562V15.5616C31.0312 17.4497 30.4406 21.0712 29.685 22.6875H26.8125C26.0362 22.6875 25.4062 23.3175 25.4062 24.0938C25.4062 24.87 26.0362 25.5 26.8125 25.5H40.875C41.6503 25.5 42.2812 26.1309 42.2812 26.9062C42.2812 27.6816 41.6503 28.3125 40.875 28.3125H38.0625C37.2863 28.3125 36.6562 28.9425 36.6562 29.7188C36.6562 30.495 37.2863 31.125 38.0625 31.125Z" />
		<path
			d="M9.9375 42.375C10.7142 42.375 11.3438 41.7454 11.3438 40.9688C11.3438 40.1921 10.7142 39.5625 9.9375 39.5625C9.16085 39.5625 8.53125 40.1921 8.53125 40.9688C8.53125 41.7454 9.16085 42.375 9.9375 42.375Z" />
		<path
			d="M29.625 0C28.8484 0 28.2188 0.629625 28.2188 1.40625V4.3125C28.2188 5.08913 28.8484 5.71875 29.625 5.71875C30.4016 5.71875 31.0312 5.08913 31.0312 4.3125V1.40625C31.0312 0.629625 30.4016 0 29.625 0Z" />
		<path
			d="M23.6589 6.20139L21.6701 4.21267C21.1211 3.66348 20.2306 3.66348 19.6814 4.21267C19.1322 4.76186 19.1322 5.6522 19.6814 6.20139L21.6701 8.19011C22.2192 8.7392 23.1098 8.7393 23.6589 8.19011C24.2081 7.64092 24.2081 6.75058 23.6589 6.20139Z" />
		<path
			d="M39.569 4.21267C39.0199 3.66348 38.1295 3.66348 37.5803 4.21267L35.5916 6.2013C35.0424 6.75049 35.0424 7.64083 35.5916 8.19002C36.1407 8.73921 37.0311 8.7393 37.5803 8.19011L39.569 6.20139C40.1182 5.6522 40.1182 4.76186 39.569 4.21267Z" />
	</symbol>

	<symbol id="helmet" width="48" height="38" viewBox="0 0 48 38" xmlns="http://www.w3.org/2000/svg">
		<path
			d="M45.1875 29.0856V24.625C45.1875 19.9949 43.6945 15.594 40.87 11.8982C38.3629 8.61756 34.8964 6.10159 31.026 4.73163C30.9183 2.50066 29.0697 0.71875 26.8125 0.71875H21.1875C18.9303 0.71875 17.0817 2.50066 16.974 4.73163C13.1036 6.10159 9.63713 8.61756 7.12997 11.8982C4.30547 15.594 2.8125 19.9949 2.8125 24.625V29.0856C1.17572 29.6661 0 31.2292 0 33.0625C0 35.3887 1.89253 37.2812 4.21875 37.2812H43.7812C46.1075 37.2812 48 35.3887 48 33.0625C48 31.2292 46.8243 29.6661 45.1875 29.0856ZM5.625 24.625C5.625 19.554 7.79119 14.8068 11.3438 11.4198V16.1875C11.3438 16.9641 11.9734 17.5938 12.75 17.5938C13.5266 17.5938 14.1562 16.9641 14.1562 16.1875V9.21409C15.0424 8.64841 15.9822 8.15491 16.9688 7.74419V19C16.9688 19.7766 17.5984 20.4062 18.375 20.4062C19.1516 20.4062 19.7812 19.7766 19.7812 19V5.77487C19.7813 5.77103 19.7812 5.76719 19.7812 5.76334V4.9375C19.7812 4.16209 20.4121 3.53125 21.1875 3.53125H26.8125C27.5879 3.53125 28.2188 4.16209 28.2188 4.9375V5.76297C28.2188 5.767 28.2187 5.77094 28.2188 5.77497V19C28.2188 19.7766 28.8484 20.4062 29.625 20.4062C30.4016 20.4062 31.0312 19.7766 31.0312 19V7.74419C32.0178 8.155 32.9576 8.6485 33.8438 9.21409V16.1875C33.8438 16.9641 34.4734 17.5938 35.25 17.5938C36.0266 17.5938 36.6562 16.9641 36.6562 16.1875V11.4198C40.2088 14.8068 42.375 19.554 42.375 24.625V28.8438H5.625V24.625ZM43.7812 34.4688H4.21875C3.44334 34.4688 2.8125 33.8379 2.8125 33.0625C2.8125 32.2871 3.44334 31.6562 4.21875 31.6562H43.7812C44.5567 31.6562 45.1875 32.2871 45.1875 33.0625C45.1875 33.8379 44.5567 34.4688 43.7812 34.4688Z" />
	</symbol>

	<symbol id="attach" width="24" height="24" viewBox="0 0 24 24" xmlns="http://www.w3.org/2000/svg">
		<g clip-path="url(#clip0_1522_492)">
			<path fill-rule="evenodd" clip-rule="evenodd"
				d="M18.4305 3.93473C16.6244 2.12856 13.696 2.12856 11.8898 3.93473L5.54807 10.2765C5.15754 10.667 4.52438 10.667 4.13385 10.2765C3.74333 9.88593 3.74333 9.25276 4.13385 8.86224L10.4756 2.52052C13.0628 -0.0667034 17.2575 -0.0667034 19.8447 2.52052C22.432 5.10774 22.432 9.30246 19.8447 11.8897L11.314 20.4205C9.45897 22.2755 6.45144 22.2755 4.59645 20.4205C2.74146 18.5655 2.74146 15.5579 4.59645 13.7029L4.60028 13.6991L4.60029 13.6991L11.0406 7.3282C11.0413 7.32749 11.042 7.32678 11.0427 7.32608C12.1409 6.2301 13.9254 6.14718 15.0718 7.29351C16.1945 8.41627 16.1945 10.2366 15.0718 11.3594L10.564 15.8672C10.1734 16.2577 9.54028 16.2577 9.14975 15.8672C8.75923 15.4767 8.75923 14.8435 9.14975 14.453L13.6576 9.94516C13.9993 9.60345 13.9993 9.04943 13.6576 8.70772C13.3402 8.39033 12.8213 8.37594 12.4548 8.74241L12.451 8.74624L12.451 8.74623L6.01066 15.1172C6.01006 15.1178 6.00946 15.1184 6.00885 15.119C4.93672 16.1931 4.93732 17.9329 6.01066 19.0062C7.0846 20.0802 8.82581 20.0802 9.89975 19.0062L18.4305 10.4755C20.2367 8.6693 20.2367 5.74091 18.4305 3.93473Z" />
		</g>
		<defs>
			<clipPath id="clip0_1522_492">
				<rect width="24" height="24" />
			</clipPath>
		</defs>
	</symbol>
	<symbol id="next-arrow" width="24" height="24" viewBox="0 0 24 24" xmlns="http://www.w3.org/2000/svg">
		<path fill-rule="evenodd" clip-rule="evenodd"
			d="M14.7929 6.79289C15.1834 6.40237 15.8166 6.40237 16.2071 6.79289L20.7071 11.2929C21.0976 11.6834 21.0976 12.3166 20.7071 12.7071L16.2071 17.2071C15.8166 17.5976 15.1834 17.5976 14.7929 17.2071C14.4024 16.8166 14.4024 16.1834 14.7929 15.7929L17.5858 13H4C3.44772 13 3 12.5523 3 12C3 11.4477 3.44772 11 4 11H17.5858L14.7929 8.20711C14.4024 7.81658 14.4024 7.18342 14.7929 6.79289Z" />
	</symbol>

</svg>