<svg>
	<symbol id="play-btn" width="19" height="22" viewBox="0 0 19 22" xmlns="http://www.w3.org/2000/svg">
		<path d="M18.5 10.134C19.1667 10.5189 19.1667 11.4811 18.5 11.866L2 21.3923C1.33333 21.7772 0.499999 21.2961 0.499999 20.5263L0.5 1.47372C0.5 0.703921 1.33333 0.222794 2 0.607695L18.5 10.134Z"/>
	</symbol>
	
	<symbol id="mute-btn" width="14" height="14" viewBox="0 0 14 14" xmlns="http://www.w3.org/2000/svg">
		<path fill-rule="evenodd" clip-rule="evenodd" d="M8.00033 11.5827C8.58366 11.9994 9.33366 11.666 9.33366 10.916V7.16602L6.25033 10.2493L8.00033 11.5827Z"/>
		<path fill-rule="evenodd" clip-rule="evenodd" d="M13.2503 0.416016C12.917 0.0826823 12.417 0.0826823 12.0837 0.416016L9.33366 3.16602V1.08268C9.33366 0.416015 8.50033 -0.00065104 8.00033 0.416016L5.66699 2.33268C5.33366 2.49935 5.00033 2.66602 4.58366 2.66602H2.66699C1.75033 2.66602 1.00033 3.41602 1.00033 4.33268V7.66602C1.00033 8.58268 1.75033 9.33268 2.66699 9.33268H3.16699L0.416992 12.0827C0.0836589 12.416 0.0836589 12.916 0.416992 13.2494C0.750326 13.5827 1.25033 13.5827 1.58366 13.2494L13.2503 1.58268C13.5837 1.24935 13.5837 0.749349 13.2503 0.416016Z"/>
	</symbol>

	<symbol id="arrow-prev" width="18" height="12" viewBox="0 0 18 12" xmlns="http://www.w3.org/2000/svg">
		<path fill-rule="evenodd" clip-rule="evenodd" d="M6.20711 11.2071C5.81658 11.5976 5.18342 11.5976 4.79289 11.2071L0.292892 6.70711C-0.0976315 6.31658 -0.0976315 5.68342 0.292892 5.29289L4.79289 0.792893C5.18342 0.402369 5.81658 0.402369 6.20711 0.792893C6.59763 1.18342 6.59763 1.81658 6.20711 2.20711L3.41421 5L17 5C17.5523 5 18 5.44772 18 6C18 6.55228 17.5523 7 17 7L3.41421 7L6.20711 9.79289C6.59763 10.1834 6.59763 10.8166 6.20711 11.2071Z"/>
	</symbol>
	
	<symbol id="arrow-next" width="18" height="12" viewBox="0 0 18 12" xmlns="http://www.w3.org/2000/svg">
		<path fill-rule="evenodd" clip-rule="evenodd" d="M11.7929 0.792893C12.1834 0.402369 12.8166 0.402369 13.2071 0.792893L17.7071 5.29289C18.0976 5.68342 18.0976 6.31658 17.7071 6.70711L13.2071 11.2071C12.8166 11.5976 12.1834 11.5976 11.7929 11.2071C11.4024 10.8166 11.4024 10.1834 11.7929 9.79289L14.5858 7H1C0.447715 7 0 6.55228 0 6C0 5.44772 0.447715 5 1 5H14.5858L11.7929 2.20711C11.4024 1.81658 11.4024 1.18342 11.7929 0.792893Z"/>
	</symbol>

</svg>